<svg version="1.1" id="Layer_1" xmlns="http://www.w3.org/2000/svg" xmlns:xlink="http://www.w3.org/1999/xlink" x="0px" y="0px"
	 width="100%" viewBox="0 0 200 200" enable-background="new 0 0 200 200" xml:space="preserve">
<path fill="#FEFEFE" opacity="1.000000" stroke="none" 
	d="
M92.000000,201.000000 
	C61.352196,201.000000 31.204393,201.000000 1.028295,201.000000 
	C1.028295,134.393890 1.028295,67.787773 1.028295,1.090827 
	C67.564316,1.090827 134.128799,1.090827 200.846649,1.090827 
	C200.846649,67.666397 200.846649,134.333160 200.846649,201.000000 
	C164.788071,201.000000 128.644028,201.000000 92.000000,201.000000 
M91.089706,81.180130 
	C91.332550,79.413719 90.953300,76.638359 91.918388,76.043312 
	C98.585037,71.932785 106.004211,70.629295 113.408768,73.380379 
	C119.766754,75.742615 120.807266,81.869606 121.446739,87.793297 
	C121.749763,90.600410 121.847519,93.440536 121.858505,96.266403 
	C121.902512,107.590019 121.863884,118.913933 121.891235,130.237656 
	C121.894646,131.650757 122.109467,133.063324 122.216354,134.355560 
	C126.619278,134.355560 130.529907,134.355560 133.973816,134.355560 
	C133.973816,116.714920 134.686966,99.400215 133.744705,82.176086 
	C133.011108,68.766396 123.973465,61.560490 110.447044,60.987461 
	C101.185020,60.595085 92.814102,63.379875 85.385506,67.858704 
	C69.615082,56.080059 53.323048,62.160572 37.198116,64.291733 
	C37.198116,88.072113 37.198116,111.148827 37.198116,134.336670 
	C41.517498,134.336670 45.568787,134.336670 50.014603,134.336670 
	C50.014603,113.892982 50.014603,93.804375 50.014603,73.417686 
	C53.627705,72.993797 56.887844,72.449478 60.168716,72.254913 
	C73.142258,71.485542 78.224739,75.850670 79.015236,88.907219 
	C79.467499,96.377144 79.320312,103.885498 79.370010,111.377045 
	C79.420471,118.982697 79.381157,126.588943 79.381157,134.441666 
	C83.873268,134.441666 87.799583,134.441666 92.747795,134.441666 
	C92.237549,116.891518 91.731285,99.478333 91.089706,81.180130 
M154.186172,121.992340 
	C151.836090,126.507851 152.208908,130.734772 156.119186,134.099289 
	C159.505844,137.013290 163.527847,136.986771 167.213226,134.724304 
	C171.094131,132.341782 171.953552,128.458511 170.867096,124.265984 
	C169.020508,117.140221 160.749542,115.700447 154.186172,121.992340 
z"/>
<path fill="#09080A" opacity="1.000000" stroke="none" 
	d="
M91.157364,81.622635 
	C91.731285,99.478333 92.237549,116.891518 92.747795,134.441666 
	C87.799583,134.441666 83.873268,134.441666 79.381157,134.441666 
	C79.381157,126.588943 79.420471,118.982697 79.370010,111.377045 
	C79.320312,103.885498 79.467499,96.377144 79.015236,88.907219 
	C78.224739,75.850670 73.142258,71.485542 60.168716,72.254913 
	C56.887844,72.449478 53.627705,72.993797 50.014603,73.417686 
	C50.014603,93.804375 50.014603,113.892982 50.014603,134.336670 
	C45.568787,134.336670 41.517498,134.336670 37.198116,134.336670 
	C37.198116,111.148827 37.198116,88.072113 37.198116,64.291733 
	C53.323048,62.160572 69.615082,56.080059 85.385506,67.858704 
	C92.814102,63.379875 101.185020,60.595085 110.447044,60.987461 
	C123.973465,61.560490 133.011108,68.766396 133.744705,82.176086 
	C134.686966,99.400215 133.973816,116.714920 133.973816,134.355560 
	C130.529907,134.355560 126.619278,134.355560 122.216354,134.355560 
	C122.109467,133.063324 121.894646,131.650757 121.891235,130.237656 
	C121.863884,118.913933 121.902512,107.590019 121.858505,96.266403 
	C121.847519,93.440536 121.749763,90.600410 121.446739,87.793297 
	C120.807266,81.869606 119.766754,75.742615 113.408768,73.380379 
	C106.004211,70.629295 98.585037,71.932785 91.918388,76.043312 
	C90.953300,76.638359 91.332550,79.413719 91.157364,81.622635 
z"/>
<path fill="#0C0B0C" opacity="1.000000" stroke="none" 
	d="
M154.417786,121.670609 
	C160.749542,115.700447 169.020508,117.140221 170.867096,124.265984 
	C171.953552,128.458511 171.094131,132.341782 167.213226,134.724304 
	C163.527847,136.986771 159.505844,137.013290 156.119186,134.099289 
	C152.208908,130.734772 151.836090,126.507851 154.417786,121.670609 
z"/>
</svg>